{"glyphs":{"0":{"ha":996,"x_min":57,"x_max":939,"o":"m 57 0 l 76 765 l 198 998 l 939 998 l 920 233 l 798 0 l 57 0 m 374 803 l 366 423 l 560 803 l 374 803 m 621 193 l 629 571 l 435 193 l 621 193 z "},"1":{"ha":974,"x_min":57,"x_max":917,"o":"m 665 998 l 637 195 l 917 195 l 905 0 l 57 0 l 66 195 l 340 195 l 361 807 l 327 807 l 248 655 l 69 655 l 79 849 l 149 849 l 225 998 l 665 998 z "},"2":{"ha":993,"x_min":57,"x_max":936,"o":"m 57 0 l 61 289 l 206 597 l 583 597 l 633 715 l 633 804 l 373 804 l 369 648 l 71 648 l 76 766 l 198 998 l 936 998 l 930 709 l 787 404 l 420 404 l 361 282 l 361 193 l 917 193 l 911 0 l 57 0 z "},"3":{"ha":993,"x_min":57,"x_max":936,"o":"m 618 193 l 621 353 l 564 404 l 365 404 l 374 597 l 575 597 l 631 715 l 635 803 l 374 803 l 369 648 l 71 648 l 76 766 l 198 998 l 936 998 l 929 711 l 830 496 l 920 412 l 917 239 l 803 0 l 57 0 l 66 349 l 363 349 l 358 193 l 618 193 z "},"4":{"ha":983,"x_min":57,"x_max":926,"o":"m 604 0 l 614 404 l 57 404 l 66 694 l 224 998 l 926 1000 l 902 0 l 604 0 m 620 598 l 624 806 l 406 806 l 362 719 l 359 598 l 620 598 z "},"5":{"ha":991,"x_min":57,"x_max":935,"o":"m 75 765 l 199 998 l 935 998 l 925 803 l 373 803 l 369 597 l 762 597 l 924 442 l 918 233 l 793 0 l 57 0 l 66 349 l 363 349 l 359 195 l 620 195 l 624 404 l 68 404 l 75 765 z "},"6":{"ha":993,"x_min":57,"x_max":936,"o":"m 616 193 l 623 401 l 365 401 l 361 193 l 616 193 m 925 595 l 916 232 l 793 0 l 57 0 l 76 765 l 198 998 l 936 998 l 925 648 l 629 648 l 633 803 l 373 803 l 369 595 l 925 595 z "},"7":{"ha":979,"x_min":57,"x_max":922,"o":"m 285 0 l 620 715 l 620 804 l 359 804 l 355 648 l 57 648 l 62 766 l 184 998 l 922 998 l 917 709 l 581 0 l 285 0 z "},"8":{"ha":993,"x_min":57,"x_max":936,"o":"m 618 193 l 621 353 l 564 404 l 423 404 l 362 283 l 358 193 l 618 193 m 575 600 l 631 715 l 635 803 l 377 803 l 372 646 l 429 600 l 575 600 m 936 998 l 929 711 l 822 502 l 920 412 l 917 239 l 792 0 l 57 0 l 64 288 l 168 494 l 73 586 l 76 765 l 198 998 l 936 998 z "},"9":{"ha":993,"x_min":57,"x_max":936,"o":"m 377 806 l 370 597 l 628 597 l 632 806 l 377 806 m 68 403 l 77 766 l 199 998 l 936 998 l 917 233 l 795 0 l 57 0 l 68 350 l 363 350 l 359 195 l 620 195 l 624 403 l 68 403 z "}," ":{"ha":340,"x_min":0,"x_max":0,"o":""},"!":{"ha":486,"x_min":84,"x_max":401,"o":"m 84 0 l 92 263 l 391 263 l 381 0 l 84 0 m 92 334 l 103 998 l 401 998 l 391 334 l 92 334 z "},"\"":{"ha":564,"x_min":57,"x_max":507,"o":"m 57 803 l 66 1156 l 252 1156 l 243 803 l 57 803 m 312 803 l 321 1156 l 507 1156 l 498 803 l 312 803 z "},"#":{"ha":1168,"x_min":57,"x_max":1111,"o":"m 117 0 l 137 212 l 57 212 l 64 404 l 155 404 l 174 600 l 79 600 l 85 792 l 193 792 l 212 998 l 513 998 l 492 792 l 741 792 l 760 998 l 1061 998 l 1040 792 l 1111 792 l 1103 600 l 1021 600 l 1002 404 l 1089 404 l 1081 212 l 983 212 l 963 0 l 665 0 l 685 212 l 435 212 l 415 0 l 117 0 m 454 404 l 703 404 l 722 600 l 473 600 l 454 404 z "},"$":{"ha":1050,"x_min":71,"x_max":979,"o":"m 81 559 l 88 765 l 213 998 l 454 998 l 456 1104 l 616 1104 l 614 998 l 979 998 l 970 650 l 673 650 l 677 803 l 612 803 l 608 597 l 884 597 l 967 442 l 962 233 l 837 0 l 598 0 l 597 -109 l 439 -109 l 441 0 l 71 0 l 80 349 l 377 349 l 373 195 l 444 195 l 446 404 l 165 404 l 81 559 m 387 803 l 382 597 l 449 597 l 452 803 l 387 803 m 663 195 l 667 404 l 605 404 l 602 195 l 663 195 z "},"%":{"ha":996,"x_min":57,"x_max":939,"o":"m 57 0 l 635 998 l 939 998 l 355 0 l 57 0 m 57 601 l 65 906 l 114 1000 l 410 1000 l 401 694 l 353 601 l 57 601 m 195 897 l 190 704 l 271 704 l 277 897 l 195 897 m 581 1 l 589 307 l 637 400 l 933 400 l 925 95 l 876 1 l 581 1 m 719 297 l 713 104 l 795 104 l 800 297 l 719 297 z "},"&":{"ha":986,"x_min":57,"x_max":985,"o":"m 796 0 l 57 0 l 62 288 l 187 521 l 119 585 l 123 764 l 247 996 l 907 996 l 903 708 l 732 387 l 770 355 l 833 475 l 985 347 l 920 228 l 985 176 l 857 -60 l 796 0 m 382 347 l 359 298 l 357 193 l 562 193 l 382 347 m 605 712 l 605 802 l 420 802 l 416 594 l 547 594 l 605 712 z "},"'":{"ha":410,"x_min":57,"x_max":353,"o":"m 57 803 l 66 1156 l 353 1156 l 343 803 l 57 803 z "},"(":{"ha":563,"x_min":65,"x_max":498,"o":"m 65 -95 l 91 1095 l 498 1095 l 492 901 l 385 901 l 368 99 l 471 99 l 464 -95 l 65 -95 z "},")":{"ha":563,"x_min":65,"x_max":498,"o":"m 498 1093 l 472 -96 l 65 -96 l 71 98 l 178 98 l 195 899 l 92 899 l 99 1093 l 498 1093 z "},"*":{"ha":663,"x_min":62,"x_max":601,"o":"m 586 370 l 442 243 l 326 363 l 194 245 l 62 382 l 193 502 l 73 624 l 217 753 l 335 631 l 465 750 l 601 609 l 469 491 l 586 370 z "},"+":{"ha":663,"x_min":62,"x_max":601,"o":"m 601 594 l 593 401 l 425 401 l 418 225 l 228 225 l 233 401 l 62 401 l 69 594 l 239 594 l 244 770 l 439 770 l 433 594 l 601 594 z "},",":{"ha":433,"x_min":62,"x_max":370,"o":"m 187 -138 l 195 0 l 62 0 l 73 263 l 370 263 l 361 0 l 293 -138 l 187 -138 z "},"-":{"ha":663,"x_min":62,"x_max":601,"o":"m 601 594 l 593 401 l 62 401 l 69 594 l 601 594 z "},".":{"ha":433,"x_min":62,"x_max":370,"o":"m 62 0 l 73 263 l 370 263 l 359 0 l 62 0 z "},"/":{"ha":722,"x_min":1,"x_max":720,"o":"m 1 -22 l 416 1020 l 720 1020 l 300 -22 l 1 -22 z "},":":{"ha":465,"x_min":73,"x_max":392,"o":"m 73 130 l 84 393 l 381 393 l 370 130 l 73 130 m 84 608 l 95 871 l 392 871 l 381 608 l 84 608 z "},";":{"ha":465,"x_min":73,"x_max":392,"o":"m 84 608 l 95 871 l 392 871 l 381 608 l 84 608 m 198 -8 l 206 130 l 73 130 l 84 393 l 381 393 l 372 130 l 304 -8 l 198 -8 z "},"<":{"ha":720,"x_min":73,"x_max":647,"o":"m 510 920 l 647 753 l 355 488 l 628 251 l 491 84 l 73 450 l 83 544 l 510 920 z "},"=":{"ha":666,"x_min":62,"x_max":604,"o":"m 604 743 l 595 551 l 65 551 l 72 743 l 604 743 m 601 453 l 593 260 l 62 260 l 69 453 l 601 453 z "},">":{"ha":720,"x_min":73,"x_max":647,"o":"m 210 79 l 73 245 l 365 510 l 92 747 l 229 914 l 647 548 l 637 454 l 210 79 z "},"?":{"ha":1034,"x_min":84,"x_max":949,"o":"m 358 331 l 363 499 l 410 597 l 597 597 l 647 715 l 647 804 l 387 804 l 382 648 l 84 648 l 90 766 l 212 998 l 949 998 l 944 709 l 800 404 l 656 404 l 654 331 l 358 331 m 347 0 l 355 263 l 654 263 l 644 0 l 347 0 z "},"@":{"ha":1354,"x_min":54,"x_max":1299,"o":"m 54 582 q 235 1017 54 838 q 677 1196 416 1196 q 1118 1017 937 1196 q 1299 582 1299 838 q 1118 146 1299 326 q 677 -33 937 -33 q 235 146 416 -33 q 54 582 54 326 m 243 582 q 369 278 243 403 q 677 153 495 153 q 985 278 859 153 q 1111 582 1111 403 q 985 886 1111 761 q 677 1010 859 1010 q 369 886 495 1010 q 243 582 243 761 m 370 746 q 436 872 373 812 q 617 930 499 932 l 703 930 q 780 856 745 929 l 800 930 q 892 922 837 933 q 982 882 948 910 q 1004 788 1012 842 q 955 652 990 693 q 886 614 920 612 q 727 678 732 663 l 735 704 q 693 728 718 724 l 658 728 q 629 677 629 722 q 771 609 620 665 q 944 528 922 553 q 983 415 987 488 q 918 289 981 349 q 736 231 854 229 l 651 231 q 574 305 609 232 l 553 231 q 461 239 517 228 q 372 279 406 251 q 350 373 342 319 q 399 509 363 468 q 468 547 434 549 q 627 483 621 498 l 618 457 q 661 433 636 437 l 696 433 q 724 484 724 439 q 582 557 734 496 q 410 633 430 617 q 370 746 366 673 z "},"A":{"ha":996,"x_min":57,"x_max":939,"o":"m 57 0 l 76 764 l 198 998 l 939 998 l 914 0 l 616 0 l 624 404 l 363 404 l 355 0 l 57 0 m 629 597 l 633 804 l 374 804 l 369 597 l 629 597 z "},"B":{"ha":993,"x_min":57,"x_max":936,"o":"m 57 0 l 76 765 l 197 998 l 936 998 l 929 711 l 830 496 l 920 412 l 917 239 l 803 0 l 57 0 m 618 193 l 621 353 l 564 404 l 366 404 l 361 193 l 618 193 m 631 715 l 635 803 l 374 803 l 369 597 l 575 597 l 631 715 z "},"C":{"ha":993,"x_min":57,"x_max":936,"o":"m 57 0 l 76 765 l 198 998 l 936 998 l 925 648 l 629 648 l 633 803 l 373 803 l 361 193 l 618 193 l 621 353 l 920 353 l 911 0 l 57 0 z "},"D":{"ha":987,"x_min":57,"x_max":930,"o":"m 57 0 l 80 997 l 746 997 l 930 822 l 917 232 l 793 0 l 57 0 m 618 194 l 633 755 l 582 803 l 374 803 l 359 194 l 618 194 z "},"E":{"ha":991,"x_min":57,"x_max":935,"o":"m 57 0 l 76 765 l 198 998 l 935 998 l 925 804 l 373 804 l 368 597 l 894 597 l 884 403 l 363 403 l 358 195 l 913 195 l 903 0 l 57 0 z "},"F":{"ha":991,"x_min":57,"x_max":935,"o":"m 57 0 l 76 765 l 198 998 l 935 998 l 925 804 l 373 804 l 368 597 l 894 597 l 884 403 l 363 403 l 353 0 l 57 0 z "},"G":{"ha":993,"x_min":57,"x_max":936,"o":"m 616 193 l 623 401 l 476 401 l 481 595 l 925 595 l 916 232 l 793 0 l 57 0 l 76 765 l 198 998 l 936 998 l 925 648 l 629 648 l 633 803 l 373 803 l 361 193 l 616 193 z "},"H":{"ha":996,"x_min":57,"x_max":939,"o":"m 57 0 l 76 764 l 198 998 l 380 998 l 372 597 l 629 597 l 640 998 l 939 998 l 914 0 l 616 0 l 624 401 l 366 401 l 355 0 l 57 0 z "},"I":{"ha":437,"x_min":57,"x_max":380,"o":"m 57 0 l 76 764 l 198 998 l 380 998 l 355 0 l 57 0 z "},"J":{"ha":996,"x_min":57,"x_max":939,"o":"m 57 0 l 66 353 l 365 353 l 361 193 l 621 193 l 640 998 l 939 998 l 920 233 l 798 0 l 57 0 z "},"K":{"ha":996,"x_min":57,"x_max":939,"o":"m 57 0 l 76 764 l 198 998 l 380 998 l 372 597 l 575 597 l 633 712 l 640 998 l 939 998 l 932 708 l 833 494 l 922 410 l 914 0 l 616 0 l 624 350 l 567 401 l 366 401 l 355 0 l 57 0 z "},"L":{"ha":962,"x_min":57,"x_max":913,"o":"m 57 0 l 76 768 l 198 998 l 377 998 l 358 195 l 913 195 l 903 0 l 57 0 z "},"M":{"ha":1251,"x_min":57,"x_max":1194,"o":"m 57 0 l 76 766 l 198 998 l 463 998 l 616 195 l 629 195 l 784 998 l 1194 998 l 1172 0 l 872 0 l 887 581 l 774 0 l 472 0 l 369 543 l 354 0 l 57 0 z "},"N":{"ha":993,"x_min":57,"x_max":936,"o":"m 57 0 l 76 766 l 199 998 l 423 998 l 629 404 l 639 998 l 936 998 l 913 0 l 578 0 l 369 589 l 355 0 l 57 0 z "},"O":{"ha":996,"x_min":57,"x_max":939,"o":"m 57 0 l 76 765 l 198 998 l 939 998 l 920 233 l 798 0 l 57 0 m 374 803 l 361 193 l 621 193 l 635 803 l 374 803 z "},"P":{"ha":985,"x_min":57,"x_max":936,"o":"m 57 0 l 76 765 l 197 998 l 936 998 l 929 711 l 787 404 l 366 404 l 355 0 l 57 0 m 631 715 l 635 803 l 374 803 l 369 597 l 575 597 l 631 715 z "},"Q":{"ha":996,"x_min":57,"x_max":939,"o":"m 57 0 l 76 765 l 198 998 l 939 998 l 920 233 l 798 0 l 643 0 l 637 -184 l 339 -184 l 345 0 l 57 0 m 374 803 l 361 193 l 621 193 l 635 803 l 374 803 z "},"R":{"ha":993,"x_min":57,"x_max":936,"o":"m 621 353 l 564 404 l 366 404 l 355 0 l 57 0 l 76 765 l 197 998 l 936 998 l 929 711 l 830 496 l 920 412 l 911 0 l 613 0 l 621 353 m 631 715 l 635 803 l 374 803 l 369 597 l 575 597 l 631 715 z "},"S":{"ha":993,"x_min":57,"x_max":936,"o":"m 68 559 l 75 765 l 199 998 l 936 998 l 926 650 l 629 650 l 633 803 l 373 803 l 369 597 l 841 597 l 924 442 l 918 233 l 793 0 l 57 0 l 66 349 l 363 349 l 359 195 l 620 195 l 624 404 l 152 404 l 68 559 z "},"T":{"ha":960,"x_min":52,"x_max":911,"o":"m 312 0 l 331 803 l 52 803 l 54 854 l 130 998 l 911 998 l 902 803 l 628 803 l 609 0 l 312 0 z "},"U":{"ha":996,"x_min":57,"x_max":939,"o":"m 57 0 l 76 765 l 198 998 l 380 998 l 359 194 l 620 194 l 640 998 l 939 998 l 913 0 l 57 0 z "},"V":{"ha":955,"x_min":57,"x_max":939,"o":"m 57 0 l 79 998 l 380 998 l 359 194 l 549 194 l 640 998 l 939 998 l 849 233 l 727 0 l 57 0 z "},"W":{"ha":1218,"x_min":57,"x_max":1202,"o":"m 57 0 l 76 766 l 198 998 l 378 998 l 359 194 l 400 194 l 491 998 l 792 998 l 772 194 l 810 194 l 901 998 l 1202 998 l 1112 233 l 990 0 l 597 0 l 602 206 l 597 206 l 488 0 l 57 0 z "},"X":{"ha":996,"x_min":57,"x_max":939,"o":"m 575 597 l 633 712 l 640 998 l 939 998 l 932 708 l 833 494 l 922 410 l 914 0 l 616 0 l 624 350 l 567 401 l 420 401 l 362 286 l 355 0 l 57 0 l 64 290 l 163 505 l 73 589 l 76 765 l 198 998 l 380 998 l 372 648 l 429 597 l 575 597 z "},"Y":{"ha":963,"x_min":49,"x_max":914,"o":"m 551 597 l 609 712 l 616 998 l 914 998 l 907 708 l 770 401 l 625 401 l 616 0 l 317 0 l 327 401 l 244 401 l 49 589 l 54 814 l 149 998 l 355 998 l 347 648 l 404 597 l 551 597 z "},"Z":{"ha":993,"x_min":57,"x_max":936,"o":"m 612 803 l 79 803 l 81 854 l 157 998 l 936 998 l 930 746 l 381 195 l 914 195 l 909 0 l 57 0 l 62 252 l 612 803 z "},"[":{"ha":563,"x_min":65,"x_max":498,"o":"m 65 -95 l 91 1095 l 498 1095 l 492 901 l 385 901 l 368 99 l 471 99 l 464 -95 l 65 -95 z "},"\\":{"ha":979,"x_min":57,"x_max":922,"o":"m 107 102 l 113 260 l 331 259 l 332 331 l 110 332 l 115 491 l 218 491 l 57 646 l 62 814 l 157 998 l 363 998 l 355 705 l 412 654 l 559 654 l 617 769 l 624 998 l 922 998 l 916 765 l 792 487 l 868 487 l 864 328 l 631 330 l 629 258 l 865 256 l 861 98 l 627 99 l 624 0 l 326 0 l 328 100 l 107 102 z "},"]":{"ha":563,"x_min":65,"x_max":498,"o":"m 498 1093 l 472 -96 l 65 -96 l 71 98 l 178 98 l 195 899 l 92 899 l 99 1093 l 498 1093 z "},"^":{"ha":694,"x_min":0,"x_max":0,"o":""},"_":{"ha":663,"x_min":62,"x_max":601,"o":"m 601 193 l 593 0 l 62 0 l 69 193 l 601 193 z "},"`":{"ha":997,"x_min":247,"x_max":750,"o":"m 750 1211 l 708 1024 l 247 1108 l 288 1295 l 750 1211 z "},"a":{"ha":996,"x_min":57,"x_max":939,"o":"m 57 0 l 76 764 l 198 998 l 939 998 l 914 0 l 616 0 l 624 404 l 363 404 l 355 0 l 57 0 m 629 597 l 633 804 l 374 804 l 369 597 l 629 597 z "},"b":{"ha":993,"x_min":57,"x_max":936,"o":"m 57 0 l 76 765 l 197 998 l 936 998 l 929 711 l 830 496 l 920 412 l 917 239 l 803 0 l 57 0 m 618 193 l 621 353 l 564 404 l 366 404 l 361 193 l 618 193 m 631 715 l 635 803 l 374 803 l 369 597 l 575 597 l 631 715 z "},"c":{"ha":993,"x_min":57,"x_max":936,"o":"m 57 0 l 76 765 l 198 998 l 936 998 l 925 648 l 629 648 l 633 803 l 373 803 l 361 193 l 618 193 l 621 353 l 920 353 l 911 0 l 57 0 z "},"d":{"ha":987,"x_min":57,"x_max":930,"o":"m 57 0 l 80 997 l 746 997 l 930 822 l 917 232 l 793 0 l 57 0 m 618 194 l 633 755 l 582 803 l 374 803 l 359 194 l 618 194 z "},"e":{"ha":991,"x_min":57,"x_max":935,"o":"m 57 0 l 76 765 l 198 998 l 935 998 l 925 804 l 373 804 l 368 597 l 894 597 l 884 403 l 363 403 l 358 195 l 913 195 l 903 0 l 57 0 z "},"f":{"ha":991,"x_min":57,"x_max":935,"o":"m 57 0 l 76 765 l 198 998 l 935 998 l 925 804 l 373 804 l 368 597 l 894 597 l 884 403 l 363 403 l 353 0 l 57 0 z "},"g":{"ha":993,"x_min":57,"x_max":936,"o":"m 616 193 l 623 401 l 476 401 l 481 595 l 925 595 l 916 232 l 793 0 l 57 0 l 76 765 l 198 998 l 936 998 l 925 648 l 629 648 l 633 803 l 373 803 l 361 193 l 616 193 z "},"h":{"ha":996,"x_min":57,"x_max":939,"o":"m 57 0 l 76 764 l 198 998 l 380 998 l 372 597 l 629 597 l 640 998 l 939 998 l 914 0 l 616 0 l 624 401 l 366 401 l 355 0 l 57 0 z "},"i":{"ha":437,"x_min":57,"x_max":380,"o":"m 57 0 l 76 764 l 198 998 l 380 998 l 355 0 l 57 0 z "},"j":{"ha":996,"x_min":57,"x_max":939,"o":"m 57 0 l 66 353 l 365 353 l 361 193 l 621 193 l 640 998 l 939 998 l 920 233 l 798 0 l 57 0 z "},"k":{"ha":996,"x_min":57,"x_max":939,"o":"m 57 0 l 76 764 l 198 998 l 380 998 l 372 597 l 575 597 l 633 712 l 640 998 l 939 998 l 932 708 l 833 494 l 922 410 l 914 0 l 616 0 l 624 350 l 567 401 l 366 401 l 355 0 l 57 0 z "},"l":{"ha":962,"x_min":57,"x_max":913,"o":"m 57 0 l 76 768 l 198 998 l 377 998 l 358 195 l 913 195 l 903 0 l 57 0 z "},"m":{"ha":1261,"x_min":57,"x_max":1194,"o":"m 57 0 l 76 766 l 198 998 l 463 998 l 616 195 l 629 195 l 784 998 l 1194 998 l 1172 0 l 872 0 l 887 581 l 774 0 l 472 0 l 369 543 l 354 0 l 57 0 z "},"n":{"ha":993,"x_min":57,"x_max":936,"o":"m 57 0 l 76 766 l 199 998 l 423 998 l 629 404 l 639 998 l 936 998 l 913 0 l 578 0 l 369 589 l 355 0 l 57 0 z "},"o":{"ha":996,"x_min":57,"x_max":939,"o":"m 57 0 l 76 765 l 198 998 l 939 998 l 920 233 l 798 0 l 57 0 m 374 803 l 361 193 l 621 193 l 635 803 l 374 803 z "},"p":{"ha":985,"x_min":57,"x_max":936,"o":"m 57 0 l 76 765 l 197 998 l 936 998 l 929 711 l 787 404 l 366 404 l 355 0 l 57 0 m 631 715 l 635 803 l 374 803 l 369 597 l 575 597 l 631 715 z "},"q":{"ha":996,"x_min":57,"x_max":939,"o":"m 57 0 l 76 765 l 198 998 l 939 998 l 920 233 l 798 0 l 643 0 l 637 -184 l 339 -184 l 345 0 l 57 0 m 374 803 l 361 193 l 621 193 l 635 803 l 374 803 z "},"r":{"ha":993,"x_min":57,"x_max":936,"o":"m 621 353 l 564 404 l 366 404 l 355 0 l 57 0 l 76 765 l 197 998 l 936 998 l 929 711 l 830 496 l 920 412 l 911 0 l 613 0 l 621 353 m 631 715 l 635 803 l 374 803 l 369 597 l 575 597 l 631 715 z "},"s":{"ha":993,"x_min":57,"x_max":936,"o":"m 68 559 l 75 765 l 199 998 l 936 998 l 926 650 l 629 650 l 633 803 l 373 803 l 369 597 l 841 597 l 924 442 l 918 233 l 793 0 l 57 0 l 66 349 l 363 349 l 359 195 l 620 195 l 624 404 l 152 404 l 68 559 z "},"t":{"ha":960,"x_min":52,"x_max":911,"o":"m 312 0 l 331 803 l 52 803 l 54 854 l 130 998 l 911 998 l 902 803 l 628 803 l 609 0 l 312 0 z "},"u":{"ha":996,"x_min":57,"x_max":939,"o":"m 57 0 l 76 765 l 198 998 l 380 998 l 359 194 l 620 194 l 640 998 l 939 998 l 913 0 l 57 0 z "},"v":{"ha":955,"x_min":57,"x_max":939,"o":"m 57 0 l 79 998 l 380 998 l 359 194 l 549 194 l 640 998 l 939 998 l 849 233 l 727 0 l 57 0 z "},"w":{"ha":1218,"x_min":57,"x_max":1202,"o":"m 57 0 l 76 766 l 198 998 l 378 998 l 359 194 l 400 194 l 491 998 l 792 998 l 772 194 l 810 194 l 901 998 l 1202 998 l 1112 233 l 990 0 l 597 0 l 602 206 l 597 206 l 488 0 l 57 0 z "},"x":{"ha":996,"x_min":57,"x_max":939,"o":"m 575 597 l 633 712 l 640 998 l 939 998 l 932 708 l 833 494 l 922 410 l 914 0 l 616 0 l 624 350 l 567 401 l 420 401 l 362 286 l 355 0 l 57 0 l 64 290 l 163 505 l 73 589 l 76 765 l 198 998 l 380 998 l 372 648 l 429 597 l 575 597 z "},"y":{"ha":963,"x_min":49,"x_max":914,"o":"m 551 597 l 609 712 l 616 998 l 914 998 l 907 708 l 770 401 l 625 401 l 616 0 l 317 0 l 327 401 l 244 401 l 49 589 l 54 814 l 149 998 l 355 998 l 347 648 l 404 597 l 551 597 z "},"z":{"ha":993,"x_min":57,"x_max":936,"o":"m 612 803 l 79 803 l 81 854 l 157 998 l 936 998 l 930 746 l 381 195 l 914 195 l 909 0 l 57 0 l 62 252 l 612 803 z "},"{":{"ha":694,"x_min":0,"x_max":0,"o":""},"|":{"ha":445,"x_min":62,"x_max":382,"o":"m 62 -22 l 81 1020 l 382 1020 l 361 -22 l 62 -22 z "},"}":{"ha":694,"x_min":0,"x_max":0,"o":""},"~":{"ha":694,"x_min":0,"x_max":0,"o":""}," ":{"ha":694,"x_min":0,"x_max":0,"o":""},"¡":{"ha":494,"x_min":84,"x_max":410,"o":"m 410 963 l 401 700 l 103 700 l 113 963 l 410 963 m 401 629 l 382 -35 l 84 -35 l 103 629 l 401 629 z "},"¢":{"ha":694,"x_min":0,"x_max":0,"o":""},"£":{"ha":1038,"x_min":49,"x_max":981,"o":"m 433 806 l 430 646 l 487 594 l 686 594 l 677 401 l 476 401 l 420 283 l 416 195 l 677 195 l 682 350 l 981 350 l 975 232 l 853 0 l 115 0 l 122 288 l 175 401 l 49 401 l 58 594 l 183 594 l 132 640 l 134 760 l 248 998 l 943 998 l 933 650 l 636 650 l 642 806 l 433 806 z "},"¤":{"ha":694,"x_min":0,"x_max":0,"o":""},"¥":{"ha":979,"x_min":57,"x_max":922,"o":"m 107 102 l 113 260 l 331 259 l 332 331 l 110 332 l 115 491 l 218 491 l 57 646 l 62 814 l 157 998 l 363 998 l 355 705 l 412 654 l 559 654 l 617 769 l 624 998 l 922 998 l 916 765 l 792 487 l 868 487 l 864 328 l 631 330 l 629 258 l 865 256 l 861 98 l 627 99 l 624 0 l 326 0 l 328 100 l 107 102 z "},"¦":{"ha":694,"x_min":0,"x_max":0,"o":""},"§":{"ha":694,"x_min":0,"x_max":0,"o":""},"¨":{"ha":1000,"x_min":171,"x_max":829,"o":"m 171 1050 l 180 1297 l 460 1297 l 450 1050 l 171 1050 m 540 1050 l 549 1297 l 829 1297 l 819 1050 l 540 1050 z "},"©":{"ha":694,"x_min":0,"x_max":0,"o":""},"ª":{"ha":694,"x_min":0,"x_max":0,"o":""},"«":{"ha":883,"x_min":76,"x_max":831,"o":"m 218 1093 l 481 1053 l 347 499 l 481 -54 l 218 -95 l 76 496 l 218 1093 m 568 1093 l 831 1053 l 697 499 l 831 -54 l 568 -95 l 426 496 l 568 1093 z "},"¬":{"ha":694,"x_min":0,"x_max":0,"o":""},"­":{"ha":694,"x_min":0,"x_max":0,"o":""},"®":{"ha":694,"x_min":0,"x_max":0,"o":""},"¯":{"ha":694,"x_min":0,"x_max":0,"o":""},"°":{"ha":1008,"x_min":347,"x_max":661,"o":"m 347 1028 l 358 1297 l 661 1297 l 650 1028 l 347 1028 m 445 1114 l 553 1114 l 556 1211 l 449 1211 l 445 1114 z "},"±":{"ha":694,"x_min":0,"x_max":0,"o":""},"²":{"ha":694,"x_min":0,"x_max":0,"o":""},"³":{"ha":694,"x_min":0,"x_max":0,"o":""},"´":{"ha":993,"x_min":252,"x_max":741,"o":"m 715 1297 l 741 1105 l 279 1023 l 252 1214 l 715 1297 z "},"µ":{"ha":694,"x_min":0,"x_max":0,"o":""},"¶":{"ha":694,"x_min":0,"x_max":0,"o":""},"·":{"ha":694,"x_min":0,"x_max":0,"o":""},"¸":{"ha":871,"x_min":231,"x_max":640,"o":"m 640 0 l 639 -35 l 517 -269 l 231 -269 l 235 -76 l 340 -76 l 343 0 l 640 0 z "},"¹":{"ha":694,"x_min":0,"x_max":0,"o":""},"º":{"ha":694,"x_min":0,"x_max":0,"o":""},"»":{"ha":888,"x_min":76,"x_max":831,"o":"m 689 1093 l 831 496 l 689 -95 l 426 -54 l 560 499 l 426 1053 l 689 1093 m 339 1093 l 481 496 l 339 -95 l 76 -54 l 210 499 l 76 1053 l 339 1093 z "},"¼":{"ha":694,"x_min":0,"x_max":0,"o":""},"½":{"ha":694,"x_min":0,"x_max":0,"o":""},"¾":{"ha":694,"x_min":0,"x_max":0,"o":""},"¿":{"ha":1034,"x_min":84,"x_max":949,"o":"m 675 632 l 670 464 l 624 366 l 437 366 l 387 248 l 387 159 l 647 159 l 651 315 l 949 315 l 944 197 l 822 -35 l 84 -35 l 90 254 l 233 559 l 377 559 l 380 632 l 675 632 m 686 963 l 678 700 l 380 700 l 389 963 l 686 963 z "},"À":{"ha":996,"x_min":57,"x_max":939,"o":"m 57 0 l 76 764 l 198 998 l 939 998 l 914 0 l 616 0 l 624 404 l 363 404 l 355 0 l 57 0 m 629 597 l 633 804 l 374 804 l 369 597 l 629 597 m 750 1211 l 708 1024 l 247 1108 l 288 1295 l 750 1211 z "},"Á":{"ha":996,"x_min":57,"x_max":939,"o":"m 57 0 l 76 764 l 198 998 l 939 998 l 914 0 l 616 0 l 624 404 l 363 404 l 355 0 l 57 0 m 629 597 l 633 804 l 374 804 l 369 597 l 629 597 m 716 1297 l 742 1105 l 281 1023 l 254 1214 l 716 1297 z "},"Â":{"ha":996,"x_min":57,"x_max":939,"o":"m 57 0 l 76 764 l 198 998 l 939 998 l 914 0 l 616 0 l 624 404 l 363 404 l 355 0 l 57 0 m 629 597 l 633 804 l 374 804 l 369 597 l 629 597 m 503 1294 l 799 1207 l 770 1016 l 499 1096 l 228 1024 l 203 1215 l 503 1294 z "},"Ã":{"ha":996,"x_min":57,"x_max":939,"o":"m 57 0 l 76 764 l 198 998 l 939 998 l 914 0 l 616 0 l 624 404 l 363 404 l 355 0 l 57 0 m 629 597 l 633 804 l 374 804 l 369 597 l 629 597 m 435 1297 l 579 1232 l 760 1303 l 784 1112 l 568 1031 l 425 1096 l 244 1024 l 220 1215 l 435 1297 z "},"Ä":{"ha":996,"x_min":57,"x_max":939,"o":"m 57 0 l 76 764 l 198 998 l 939 998 l 914 0 l 616 0 l 624 404 l 363 404 l 355 0 l 57 0 m 629 597 l 633 804 l 374 804 l 369 597 l 629 597 m 172 1050 l 182 1297 l 461 1297 l 452 1050 l 172 1050 m 541 1050 l 551 1297 l 830 1297 l 821 1050 l 541 1050 z "},"Å":{"ha":996,"x_min":57,"x_max":939,"o":"m 57 0 l 76 764 l 198 998 l 939 998 l 914 0 l 616 0 l 624 404 l 363 404 l 355 0 l 57 0 m 629 597 l 633 804 l 374 804 l 369 597 l 629 597 m 347 1028 l 358 1297 l 661 1297 l 650 1028 l 347 1028 m 445 1114 l 553 1114 l 556 1211 l 449 1211 l 445 1114 z "},"Æ":{"ha":1347,"x_min":57,"x_max":1290,"o":"m 57 0 l 76 764 l 198 998 l 1290 998 l 1280 804 l 916 804 l 910 597 l 1249 597 l 1240 403 l 906 403 l 901 195 l 1268 195 l 1259 0 l 600 0 l 605 404 l 363 404 l 355 0 l 57 0 m 610 597 l 614 804 l 374 804 l 369 597 l 610 597 z "},"Ç":{"ha":993,"x_min":57,"x_max":936,"o":"m 57 0 l 76 765 l 198 998 l 936 998 l 925 648 l 629 648 l 633 803 l 373 803 l 361 193 l 618 193 l 621 353 l 920 353 l 911 0 l 642 0 l 640 -35 l 518 -269 l 232 -269 l 236 -76 l 342 -76 l 345 0 l 57 0 z "},"È":{"ha":991,"x_min":57,"x_max":935,"o":"m 57 0 l 76 765 l 198 998 l 935 998 l 925 804 l 373 804 l 368 597 l 894 597 l 884 403 l 363 403 l 358 195 l 913 195 l 903 0 l 57 0 m 750 1211 l 708 1024 l 247 1108 l 288 1295 l 750 1211 z "},"É":{"ha":991,"x_min":57,"x_max":935,"o":"m 57 0 l 76 765 l 198 998 l 935 998 l 925 804 l 373 804 l 368 597 l 894 597 l 884 403 l 363 403 l 358 195 l 913 195 l 903 0 l 57 0 m 245 1211 l 708 1295 l 749 1108 l 288 1024 l 245 1211 z "},"Ê":{"ha":991,"x_min":57,"x_max":935,"o":"m 57 0 l 76 765 l 198 998 l 935 998 l 925 804 l 373 804 l 368 597 l 894 597 l 884 403 l 363 403 l 358 195 l 913 195 l 903 0 l 57 0 m 503 1294 l 799 1207 l 770 1016 l 499 1096 l 228 1024 l 203 1215 l 503 1294 z "},"Ë":{"ha":991,"x_min":57,"x_max":935,"o":"m 57 0 l 76 765 l 198 998 l 935 998 l 925 804 l 373 804 l 368 597 l 894 597 l 884 403 l 363 403 l 358 195 l 913 195 l 903 0 l 57 0 m 172 1050 l 182 1297 l 461 1297 l 452 1050 l 172 1050 m 541 1050 l 551 1297 l 830 1297 l 821 1050 l 541 1050 z "},"Ì":{"ha":438,"x_min":30,"x_max":449,"o":"m 57 0 l 76 764 l 198 998 l 380 998 l 355 0 l 57 0 m 449 1211 l 407 1024 l 30 1111 l 71 1298 l 449 1211 z "},"Í":{"ha":437,"x_min":28,"x_max":448,"o":"m 57 0 l 76 764 l 198 998 l 380 998 l 355 0 l 57 0 m 28 1211 l 407 1298 l 448 1111 l 71 1024 l 28 1211 z "},"Î":{"ha":437,"x_min":-19,"x_max":499,"o":"m 57 0 l 76 764 l 198 998 l 380 998 l 355 0 l 57 0 m 499 1215 l 475 1024 l 241 1096 l 5 1024 l -19 1215 l 244 1297 l 499 1215 z "},"Ï":{"ha":437,"x_min":-69,"x_max":553,"o":"m 57 0 l 76 764 l 198 998 l 380 998 l 355 0 l 57 0 m -69 1050 l -60 1297 l 220 1297 l 210 1050 l -69 1050 m 264 1050 l 274 1297 l 553 1297 l 544 1050 l 264 1050 z "},"Ð":{"ha":1028,"x_min":41,"x_max":971,"o":"m 98 0 l 107 404 l 41 404 l 47 597 l 111 597 l 121 997 l 787 997 l 971 822 l 958 232 l 834 0 l 98 0 m 659 194 l 674 755 l 623 803 l 415 803 l 410 597 l 490 597 l 481 404 l 406 404 l 400 194 l 659 194 z "},"Ñ":{"ha":993,"x_min":57,"x_max":936,"o":"m 57 0 l 76 766 l 199 998 l 423 998 l 629 404 l 639 998 l 936 998 l 913 0 l 578 0 l 369 589 l 355 0 l 57 0 m 430 1294 l 574 1229 l 754 1301 l 779 1109 l 563 1028 l 419 1093 l 239 1021 l 214 1213 l 430 1294 z "},"Ò":{"ha":996,"x_min":57,"x_max":939,"o":"m 57 0 l 76 765 l 198 998 l 939 998 l 920 233 l 798 0 l 57 0 m 374 803 l 361 193 l 621 193 l 635 803 l 374 803 m 750 1211 l 708 1024 l 247 1108 l 288 1295 l 750 1211 z "},"Ó":{"ha":996,"x_min":57,"x_max":939,"o":"m 57 0 l 76 765 l 198 998 l 939 998 l 920 233 l 798 0 l 57 0 m 374 803 l 361 193 l 621 193 l 635 803 l 374 803 m 245 1211 l 708 1295 l 749 1108 l 288 1024 l 245 1211 z "},"Ô":{"ha":996,"x_min":57,"x_max":939,"o":"m 57 0 l 76 765 l 198 998 l 939 998 l 920 233 l 798 0 l 57 0 m 374 803 l 361 193 l 621 193 l 635 803 l 374 803 m 503 1294 l 799 1207 l 770 1016 l 499 1096 l 228 1024 l 203 1215 l 503 1294 z "},"Õ":{"ha":996,"x_min":57,"x_max":939,"o":"m 57 0 l 76 765 l 198 998 l 939 998 l 920 233 l 798 0 l 57 0 m 374 803 l 361 193 l 621 193 l 635 803 l 374 803 m 435 1297 l 579 1232 l 760 1303 l 784 1112 l 568 1031 l 425 1096 l 244 1024 l 220 1215 l 435 1297 z "},"Ö":{"ha":996,"x_min":57,"x_max":939,"o":"m 57 0 l 76 765 l 198 998 l 939 998 l 920 233 l 798 0 l 57 0 m 374 803 l 361 193 l 621 193 l 635 803 l 374 803 m 172 1050 l 182 1297 l 461 1297 l 452 1050 l 172 1050 m 541 1050 l 551 1297 l 830 1297 l 821 1050 l 541 1050 z "},"×":{"ha":663,"x_min":62,"x_max":601,"o":"m 586 370 l 442 243 l 326 363 l 194 245 l 62 382 l 193 502 l 73 624 l 217 753 l 335 631 l 465 750 l 601 609 l 469 491 l 586 370 z "},"Ø":{"ha":1020,"x_min":57,"x_max":963,"o":"m 57 0 l 76 765 l 198 998 l 467 998 l 475 1107 l 633 1097 l 627 998 l 963 998 l 944 233 l 822 0 l 553 0 l 545 -111 l 389 -102 l 396 0 l 57 0 m 374 803 l 361 193 l 410 193 l 453 803 l 374 803 m 646 193 l 659 803 l 612 803 l 567 193 l 646 193 z "},"Ù":{"ha":996,"x_min":57,"x_max":939,"o":"m 57 0 l 76 765 l 198 998 l 380 998 l 359 194 l 620 194 l 640 998 l 939 998 l 913 0 l 57 0 m 750 1211 l 708 1024 l 247 1108 l 288 1295 l 750 1211 z "},"Ú":{"ha":996,"x_min":57,"x_max":939,"o":"m 57 0 l 76 765 l 198 998 l 380 998 l 359 194 l 620 194 l 640 998 l 939 998 l 913 0 l 57 0 m 245 1211 l 708 1295 l 749 1108 l 288 1024 l 245 1211 z "},"Û":{"ha":996,"x_min":57,"x_max":939,"o":"m 57 0 l 76 765 l 198 998 l 380 998 l 359 194 l 620 194 l 640 998 l 939 998 l 913 0 l 57 0 m 503 1294 l 799 1207 l 770 1016 l 499 1096 l 228 1024 l 203 1215 l 503 1294 z "},"Ü":{"ha":996,"x_min":57,"x_max":939,"o":"m 57 0 l 76 765 l 198 998 l 380 998 l 359 194 l 620 194 l 640 998 l 939 998 l 913 0 l 57 0 m 172 1050 l 182 1297 l 461 1297 l 452 1050 l 172 1050 m 541 1050 l 551 1297 l 830 1297 l 821 1050 l 541 1050 z "},"Ý":{"ha":963,"x_min":49,"x_max":914,"o":"m 551 597 l 609 712 l 616 998 l 914 998 l 907 708 l 770 401 l 625 401 l 616 0 l 317 0 l 327 401 l 244 401 l 49 589 l 54 814 l 149 998 l 355 998 l 347 648 l 404 597 l 551 597 m 232 1211 l 694 1295 l 735 1108 l 274 1024 l 232 1211 z "},"Þ":{"ha":977,"x_min":57,"x_max":920,"o":"m 57 0 l 80 997 l 380 997 l 378 920 l 738 920 l 920 746 l 906 319 l 783 87 l 359 87 l 358 0 l 57 0 m 608 279 l 623 680 l 571 727 l 374 727 l 363 279 l 608 279 z "},"ß":{"ha":993,"x_min":57,"x_max":936,"o":"m 57 -41 l 76 765 l 197 998 l 936 998 l 929 711 l 830 496 l 920 412 l 917 239 l 803 0 l 439 0 l 445 193 l 618 193 l 621 353 l 564 404 l 445 404 l 450 597 l 575 597 l 631 715 l 635 803 l 374 803 l 362 -41 l 57 -41 z "},"à":{"ha":996,"x_min":57,"x_max":939,"o":"m 57 0 l 76 764 l 198 998 l 939 998 l 914 0 l 616 0 l 624 404 l 363 404 l 355 0 l 57 0 m 629 597 l 633 804 l 374 804 l 369 597 l 629 597 m 750 1211 l 708 1024 l 247 1108 l 288 1295 l 750 1211 z "},"á":{"ha":996,"x_min":57,"x_max":939,"o":"m 57 0 l 76 764 l 198 998 l 939 998 l 914 0 l 616 0 l 624 404 l 363 404 l 355 0 l 57 0 m 629 597 l 633 804 l 374 804 l 369 597 l 629 597 m 716 1297 l 742 1105 l 281 1023 l 254 1214 l 716 1297 z "},"â":{"ha":996,"x_min":57,"x_max":939,"o":"m 57 0 l 76 764 l 198 998 l 939 998 l 914 0 l 616 0 l 624 404 l 363 404 l 355 0 l 57 0 m 629 597 l 633 804 l 374 804 l 369 597 l 629 597 m 503 1294 l 799 1207 l 770 1016 l 499 1096 l 228 1024 l 203 1215 l 503 1294 z "},"ã":{"ha":996,"x_min":57,"x_max":939,"o":"m 57 0 l 76 764 l 198 998 l 939 998 l 914 0 l 616 0 l 624 404 l 363 404 l 355 0 l 57 0 m 629 597 l 633 804 l 374 804 l 369 597 l 629 597 m 435 1297 l 579 1232 l 760 1303 l 784 1112 l 568 1031 l 425 1096 l 244 1024 l 220 1215 l 435 1297 z "},"ä":{"ha":996,"x_min":57,"x_max":939,"o":"m 57 0 l 76 764 l 198 998 l 939 998 l 914 0 l 616 0 l 624 404 l 363 404 l 355 0 l 57 0 m 629 597 l 633 804 l 374 804 l 369 597 l 629 597 m 172 1050 l 182 1297 l 461 1297 l 452 1050 l 172 1050 m 541 1050 l 551 1297 l 830 1297 l 821 1050 l 541 1050 z "},"å":{"ha":996,"x_min":57,"x_max":939,"o":"m 57 0 l 76 764 l 198 998 l 939 998 l 914 0 l 616 0 l 624 404 l 363 404 l 355 0 l 57 0 m 629 597 l 633 804 l 374 804 l 369 597 l 629 597 m 347 1028 l 358 1297 l 661 1297 l 650 1028 l 347 1028 m 445 1114 l 553 1114 l 556 1211 l 449 1211 l 445 1114 z "},"æ":{"ha":1347,"x_min":57,"x_max":1290,"o":"m 57 0 l 76 764 l 198 998 l 1290 998 l 1280 804 l 916 804 l 910 597 l 1249 597 l 1240 403 l 906 403 l 901 195 l 1268 195 l 1259 0 l 600 0 l 597 0 l 605 404 l 363 404 l 355 0 l 57 0 m 610 597 l 614 804 l 374 804 l 369 597 l 610 597 z "},"ç":{"ha":993,"x_min":57,"x_max":936,"o":"m 57 0 l 76 765 l 198 998 l 936 998 l 925 648 l 629 648 l 633 803 l 373 803 l 361 193 l 618 193 l 621 353 l 920 353 l 911 0 l 642 0 l 640 -35 l 518 -269 l 232 -269 l 236 -76 l 342 -76 l 345 0 l 57 0 z "},"è":{"ha":991,"x_min":57,"x_max":935,"o":"m 57 0 l 76 765 l 198 998 l 935 998 l 925 804 l 373 804 l 368 597 l 894 597 l 884 403 l 363 403 l 358 195 l 913 195 l 903 0 l 57 0 m 750 1211 l 708 1024 l 247 1108 l 288 1295 l 750 1211 z "},"é":{"ha":991,"x_min":57,"x_max":935,"o":"m 57 0 l 76 765 l 198 998 l 935 998 l 925 804 l 373 804 l 368 597 l 894 597 l 884 403 l 363 403 l 358 195 l 913 195 l 903 0 l 57 0 m 245 1211 l 708 1295 l 749 1108 l 288 1024 l 245 1211 z "},"ê":{"ha":991,"x_min":57,"x_max":935,"o":"m 57 0 l 76 765 l 198 998 l 935 998 l 925 804 l 373 804 l 368 597 l 894 597 l 884 403 l 363 403 l 358 195 l 913 195 l 903 0 l 57 0 m 503 1294 l 799 1207 l 770 1016 l 499 1096 l 228 1024 l 203 1215 l 503 1294 z "},"ë":{"ha":991,"x_min":57,"x_max":935,"o":"m 57 0 l 76 765 l 198 998 l 935 998 l 925 804 l 373 804 l 368 597 l 894 597 l 884 403 l 363 403 l 358 195 l 913 195 l 903 0 l 57 0 m 172 1050 l 182 1297 l 461 1297 l 452 1050 l 172 1050 m 541 1050 l 551 1297 l 830 1297 l 821 1050 l 541 1050 z "},"ì":{"ha":438,"x_min":30,"x_max":449,"o":"m 57 0 l 76 764 l 198 998 l 380 998 l 355 0 l 57 0 m 449 1211 l 407 1024 l 30 1111 l 71 1298 l 449 1211 z "},"í":{"ha":437,"x_min":28,"x_max":448,"o":"m 57 0 l 76 764 l 198 998 l 380 998 l 355 0 l 57 0 m 28 1211 l 407 1298 l 448 1111 l 71 1024 l 28 1211 z "},"î":{"ha":437,"x_min":-19,"x_max":499,"o":"m 57 0 l 76 764 l 198 998 l 380 998 l 355 0 l 57 0 m 499 1215 l 475 1024 l 241 1096 l 5 1024 l -19 1215 l 244 1297 l 499 1215 z "},"ï":{"ha":437,"x_min":-69,"x_max":553,"o":"m 57 0 l 76 764 l 198 998 l 380 998 l 355 0 l 57 0 m -69 1050 l -60 1297 l 220 1297 l 210 1050 l -69 1050 m 264 1050 l 274 1297 l 553 1297 l 544 1050 l 264 1050 z "},"ð":{"ha":694,"x_min":0,"x_max":0,"o":""},"ñ":{"ha":993,"x_min":57,"x_max":936,"o":"m 57 0 l 76 766 l 199 998 l 423 998 l 629 404 l 639 998 l 936 998 l 913 0 l 578 0 l 369 589 l 355 0 l 57 0 m 430 1294 l 574 1229 l 754 1301 l 779 1109 l 563 1028 l 419 1093 l 239 1021 l 214 1213 l 430 1294 z "},"ò":{"ha":996,"x_min":57,"x_max":939,"o":"m 57 0 l 76 765 l 198 998 l 939 998 l 920 233 l 798 0 l 57 0 m 374 803 l 361 193 l 621 193 l 635 803 l 374 803 m 750 1211 l 708 1024 l 247 1108 l 288 1295 l 750 1211 z "},"ó":{"ha":996,"x_min":57,"x_max":939,"o":"m 57 0 l 76 765 l 198 998 l 939 998 l 920 233 l 798 0 l 57 0 m 374 803 l 361 193 l 621 193 l 635 803 l 374 803 m 245 1211 l 708 1295 l 749 1108 l 288 1024 l 245 1211 z "},"ô":{"ha":996,"x_min":57,"x_max":939,"o":"m 57 0 l 76 765 l 198 998 l 939 998 l 920 233 l 798 0 l 57 0 m 374 803 l 361 193 l 621 193 l 635 803 l 374 803 m 503 1294 l 799 1207 l 770 1016 l 499 1096 l 228 1024 l 203 1215 l 503 1294 z "},"õ":{"ha":996,"x_min":57,"x_max":939,"o":"m 57 0 l 76 765 l 198 998 l 939 998 l 920 233 l 798 0 l 57 0 m 374 803 l 361 193 l 621 193 l 635 803 l 374 803 m 435 1297 l 579 1232 l 760 1303 l 784 1112 l 568 1031 l 425 1096 l 244 1024 l 220 1215 l 435 1297 z "},"ö":{"ha":996,"x_min":57,"x_max":939,"o":"m 57 0 l 76 765 l 198 998 l 939 998 l 920 233 l 798 0 l 57 0 m 374 803 l 361 193 l 621 193 l 635 803 l 374 803 m 172 1050 l 182 1297 l 461 1297 l 452 1050 l 172 1050 m 541 1050 l 551 1297 l 830 1297 l 821 1050 l 541 1050 z "},"÷":{"ha":663,"x_min":62,"x_max":601,"o":"m 601 594 l 593 401 l 62 401 l 69 594 l 601 594 m 182 651 l 193 914 l 490 914 l 479 651 l 182 651 m 171 73 l 182 336 l 479 336 l 468 73 l 171 73 z "},"ø":{"ha":1020,"x_min":57,"x_max":963,"o":"m 57 0 l 76 765 l 198 998 l 467 998 l 475 1107 l 633 1097 l 627 998 l 963 998 l 944 233 l 822 0 l 553 0 l 545 -111 l 389 -102 l 396 0 l 57 0 m 374 803 l 361 193 l 410 193 l 453 803 l 374 803 m 646 193 l 659 803 l 612 803 l 567 193 l 646 193 z "},"ù":{"ha":996,"x_min":57,"x_max":939,"o":"m 57 0 l 76 765 l 198 998 l 380 998 l 359 194 l 620 194 l 640 998 l 939 998 l 913 0 l 57 0 m 750 1211 l 708 1024 l 247 1108 l 288 1295 l 750 1211 z "},"ú":{"ha":996,"x_min":57,"x_max":939,"o":"m 57 0 l 76 765 l 198 998 l 380 998 l 359 194 l 620 194 l 640 998 l 939 998 l 913 0 l 57 0 m 245 1211 l 708 1295 l 749 1108 l 288 1024 l 245 1211 z "},"û":{"ha":996,"x_min":57,"x_max":939,"o":"m 57 0 l 76 765 l 198 998 l 380 998 l 359 194 l 620 194 l 640 998 l 939 998 l 913 0 l 57 0 m 503 1294 l 799 1207 l 770 1016 l 499 1096 l 228 1024 l 203 1215 l 503 1294 z "},"ü":{"ha":996,"x_min":57,"x_max":939,"o":"m 57 0 l 76 765 l 198 998 l 380 998 l 359 194 l 620 194 l 640 998 l 939 998 l 913 0 l 57 0 m 172 1050 l 182 1297 l 461 1297 l 452 1050 l 172 1050 m 541 1050 l 551 1297 l 830 1297 l 821 1050 l 541 1050 z "},"ý":{"ha":963,"x_min":49,"x_max":914,"o":"m 551 597 l 609 712 l 616 998 l 914 998 l 907 708 l 770 401 l 625 401 l 616 0 l 317 0 l 327 401 l 244 401 l 49 589 l 54 814 l 149 998 l 355 998 l 347 648 l 404 597 l 551 597 m 232 1211 l 694 1295 l 735 1108 l 274 1024 l 232 1211 z "},"þ":{"ha":977,"x_min":57,"x_max":920,"o":"m 57 0 l 80 997 l 380 997 l 378 920 l 738 920 l 920 746 l 906 319 l 783 87 l 359 87 l 358 0 l 57 0 m 608 279 l 623 680 l 571 727 l 374 727 l 363 279 l 608 279 z "},"ÿ":{"ha":963,"x_min":49,"x_max":914,"o":"m 551 597 l 609 712 l 616 998 l 914 998 l 907 708 l 770 401 l 625 401 l 616 0 l 317 0 l 327 401 l 244 401 l 49 589 l 54 814 l 149 998 l 355 998 l 347 648 l 404 597 l 551 597 m 159 1050 l 168 1297 l 448 1297 l 438 1050 l 159 1050 m 528 1050 l 537 1297 l 817 1297 l 807 1050 l 528 1050 z "},"Œ":{"ha":1366,"x_min":57,"x_max":1309,"o":"m 57 0 l 76 765 l 198 998 l 1309 998 l 1299 804 l 913 804 l 907 597 l 1268 597 l 1259 403 l 903 403 l 898 195 l 1287 195 l 1278 0 l 57 0 m 614 803 l 373 803 l 361 193 l 600 193 l 614 803 z "},"œ":{"ha":1366,"x_min":57,"x_max":1309,"o":"m 57 0 l 76 765 l 198 998 l 1309 998 l 1299 804 l 913 804 l 907 597 l 1268 597 l 1259 403 l 903 403 l 898 195 l 1287 195 l 1278 0 l 57 0 m 614 803 l 373 803 l 361 193 l 600 193 l 614 803 z "},"Š":{"ha":993,"x_min":57,"x_max":936,"o":"m 68 559 l 75 765 l 199 998 l 936 998 l 926 650 l 629 650 l 633 803 l 373 803 l 369 597 l 841 597 l 924 442 l 918 233 l 793 0 l 57 0 l 66 349 l 363 349 l 359 195 l 620 195 l 624 404 l 152 404 l 68 559 m 498 1023 l 202 1109 l 231 1301 l 502 1221 l 773 1293 l 798 1101 l 498 1023 z "},"š":{"ha":993,"x_min":57,"x_max":936,"o":"m 68 559 l 75 765 l 199 998 l 936 998 l 926 650 l 629 650 l 633 803 l 373 803 l 369 597 l 841 597 l 924 442 l 918 233 l 793 0 l 57 0 l 66 349 l 363 349 l 359 195 l 620 195 l 624 404 l 152 404 l 68 559 m 498 1023 l 202 1109 l 231 1301 l 502 1221 l 773 1293 l 798 1101 l 498 1023 z "},"Ÿ":{"ha":963,"x_min":49,"x_max":914,"o":"m 551 597 l 609 712 l 616 998 l 914 998 l 907 708 l 770 401 l 625 401 l 616 0 l 317 0 l 327 401 l 244 401 l 49 589 l 54 814 l 149 998 l 355 998 l 347 648 l 404 597 l 551 597 m 159 1050 l 168 1297 l 448 1297 l 438 1050 l 159 1050 m 528 1050 l 537 1297 l 817 1297 l 807 1050 l 528 1050 z "},"Ž":{"ha":694,"x_min":0,"x_max":0,"o":""},"ž":{"ha":694,"x_min":0,"x_max":0,"o":""},"ƒ":{"ha":694,"x_min":0,"x_max":0,"o":""},"ˆ":{"ha":1002,"x_min":203,"x_max":799,"o":"m 503 1294 l 799 1207 l 770 1016 l 499 1096 l 228 1024 l 203 1215 l 503 1294 z "},"˜":{"ha":1004,"x_min":220,"x_max":784,"o":"m 435 1297 l 579 1232 l 760 1303 l 784 1112 l 568 1031 l 425 1096 l 244 1024 l 220 1215 l 435 1297 z "},"–":{"ha":522,"x_min":-8,"x_max":530,"o":"m 530 594 l 522 401 l -8 401 l -1 594 l 530 594 z "},"—":{"ha":625,"x_min":-8,"x_max":633,"o":"m 633 594 l 625 401 l -8 401 l -1 594 l 633 594 z "},"‘":{"ha":406,"x_min":57,"x_max":349,"o":"m 237 1156 l 229 1031 l 349 1031 l 340 765 l 57 765 l 64 1031 l 132 1156 l 237 1156 z "},"’":{"ha":408,"x_min":60,"x_max":351,"o":"m 171 765 l 179 890 l 60 890 l 68 1156 l 351 1156 l 345 890 l 277 765 l 171 765 z "},"‚":{"ha":406,"x_min":57,"x_max":349,"o":"m 168 -125 l 176 0 l 57 0 l 65 266 l 349 266 l 342 0 l 274 -125 l 168 -125 z "},"“":{"ha":658,"x_min":57,"x_max":601,"o":"m 538 1280 l 530 1156 l 601 1156 l 593 890 l 358 890 l 365 1156 l 433 1280 l 538 1280 m 237 1280 l 229 1156 l 300 1156 l 292 890 l 57 890 l 64 1156 l 132 1280 l 237 1280 z "},"”":{"ha":658,"x_min":57,"x_max":601,"o":"m 119 765 l 127 890 l 57 890 l 65 1156 l 300 1156 l 293 890 l 225 765 l 119 765 m 420 765 l 429 890 l 358 890 l 366 1156 l 601 1156 l 594 890 l 526 765 l 420 765 z "},"„":{"ha":658,"x_min":57,"x_max":601,"o":"m 119 -125 l 127 0 l 57 0 l 65 266 l 300 266 l 293 0 l 225 -125 l 119 -125 m 420 -125 l 429 0 l 358 0 l 366 266 l 601 266 l 594 0 l 526 -125 l 420 -125 z "},"†":{"ha":1126,"x_min":0,"x_max":0,"o":""},"‡":{"ha":694,"x_min":0,"x_max":0,"o":""},"•":{"ha":463,"x_min":65,"x_max":397,"o":"m 65 358 l 77 643 l 397 643 l 385 358 l 65 358 z "},"…":{"ha":694,"x_min":0,"x_max":0,"o":""},"‰":{"ha":1400,"x_min":62,"x_max":1337,"o":"m 62 0 l 640 998 l 944 998 l 361 0 l 62 0 m 62 601 l 71 906 l 119 1000 l 415 1000 l 407 694 l 358 601 l 62 601 m 201 897 l 195 704 l 277 704 l 282 897 l 201 897 m 586 1 l 594 307 l 643 400 l 939 400 l 930 95 l 882 1 l 586 1 m 724 297 l 719 104 l 800 104 l 806 297 l 724 297 m 985 1 l 993 307 l 1042 400 l 1337 400 l 1329 95 l 1280 1 l 985 1 m 1123 297 l 1118 104 l 1199 104 l 1204 297 l 1123 297 z "},"‹":{"ha":590,"x_min":76,"x_max":533,"o":"m 236 1093 l 533 1053 l 381 499 l 533 -54 l 236 -95 l 76 496 l 236 1093 z "},"›":{"ha":590,"x_min":57,"x_max":514,"o":"m 354 1093 l 514 496 l 354 -95 l 57 -54 l 209 499 l 57 1053 l 354 1093 z "},"€":{"ha":1084,"x_min":52,"x_max":1027,"o":"m 148 0 l 155 267 l 52 269 l 57 427 l 159 426 l 161 522 l 56 524 l 61 682 l 164 681 l 167 765 l 289 998 l 1027 998 l 1016 648 l 720 648 l 724 803 l 464 803 l 461 680 l 578 678 l 574 519 l 458 521 l 456 425 l 574 423 l 570 264 l 453 266 l 452 193 l 709 193 l 712 353 l 1010 353 l 1002 0 l 148 0 z "},"™":{"ha":694,"x_min":0,"x_max":0,"o":""},"∙":{"ha":694,"x_min":0,"x_max":0,"o":""}}}
